<svg xmlns="http://www.w3.org/2000/svg" xmlns:xlink="http://www.w3.org/1999/xlink">

<symbol id="dribbble" fill-rule="evenodd" clip-rule="evenodd" stroke-linejoin="round" stroke-miterlimit="1.414"><path d="M8 16c-4.41 0-8-3.59-8-8s3.59-8 8-8 8 3.59 8 8-3.59 8-8 8zm6.747-6.905c-.234-.074-2.115-.635-4.257-.292.894 2.456 1.258 4.456 1.328 4.872 1.533-1.037 2.624-2.68 2.93-4.58zM10.67 14.3c-.102-.6-.5-2.688-1.46-5.18l-.044.014C5.312 10.477 3.93 13.15 3.806 13.4c1.158.905 2.614 1.444 4.194 1.444.947 0 1.85-.194 2.67-.543zm-7.747-1.72c.155-.266 2.03-3.37 5.555-4.51.09-.03.18-.056.27-.08-.173-.39-.36-.778-.555-1.16-3.413 1.02-6.723.977-7.023.97l-.003.208c0 1.755.665 3.358 1.756 4.57zM1.31 6.61c.307.005 3.122.017 6.318-.832-1.132-2.012-2.353-3.705-2.533-3.952-1.912.902-3.34 2.664-3.784 4.785zM6.4 1.368c.188.253 1.43 1.943 2.548 4 2.43-.91 3.46-2.293 3.582-2.468C11.323 1.827 9.736 1.176 8 1.176c-.55 0-1.087.066-1.6.19zm6.89 2.322c-.145.194-1.29 1.662-3.816 2.694.16.325.31.656.453.99.05.117.1.235.147.352 2.274-.286 4.533.172 4.758.22-.015-1.613-.59-3.094-1.543-4.257z"/></symbol>

<symbol id="facebook" fill-rule="evenodd" clip-rule="evenodd" stroke-linejoin="round" stroke-miterlimit="1.414"><path d="M15.117 0H.883C.395 0 0 .395 0 .883v14.234c0 .488.395.883.883.883h7.663V9.804H6.46V7.39h2.086V5.607c0-2.066 1.262-3.19 3.106-3.19.883 0 1.642.064 1.863.094v2.16h-1.28c-1 0-1.195.48-1.195 1.18v1.54h2.39l-.31 2.42h-2.08V16h4.077c.488 0 .883-.395.883-.883V.883C16 .395 15.605 0 15.117 0" fill-rule="nonzero"/></symbol>

<symbol id="flickr" fill-rule="evenodd" clip-rule="evenodd" stroke-linejoin="round" stroke-miterlimit="1.414"><path d="M0 8c0 2.05 1.662 3.71 3.71 3.71 2.05 0 3.713-1.66 3.713-3.71S5.76 4.29 3.71 4.29C1.663 4.29 0 5.95 0 8zm8.577 0c0 2.05 1.662 3.71 3.712 3.71C14.33 11.71 16 10.05 16 8s-1.662-3.71-3.71-3.71c-2.05 0-3.713 1.66-3.713 3.71z"/></symbol>

<symbol id="github" fill-rule="evenodd" clip-rule="evenodd" stroke-linejoin="round" stroke-miterlimit="1.414"><path d="M12 .297c-6.63 0-12 5.373-12 12 0 5.303 3.438 9.8 8.205 11.385.6.113.82-.258.82-.577 0-.285-.01-1.04-.015-2.04-3.338.724-4.042-1.61-4.042-1.61C4.422 18.07 3.633 17.7 3.633 17.7c-1.087-.744.084-.729.084-.729 1.205.084 1.838 1.236 1.838 1.236 1.07 1.835 2.809 1.305 3.495.998.108-.776.417-1.305.76-1.605-2.665-.3-5.466-1.332-5.466-5.93 0-1.31.465-2.38 1.235-3.22-.135-.303-.54-1.523.105-3.176 0 0 1.005-.322 3.3 1.23.96-.267 1.98-.399 3-.405 1.02.006 2.04.138 3 .405 2.28-1.552 3.285-1.23 3.285-1.23.645 1.653.24 2.873.12 3.176.765.84 1.23 1.91 1.23 3.22 0 4.61-2.805 5.625-5.475 5.92.42.36.81 1.096.81 2.22 0 1.606-.015 2.896-.015 3.286 0 .315.21.69.825.57C20.565 22.092 24 17.592 24 12.297c0-6.627-5.373-12-12-12"/></symbol>

<symbol id="instagram" fill-rule="evenodd" clip-rule="evenodd" stroke-linejoin="round" stroke-miterlimit="1.414"><path d="M12 0C8.74 0 8.333.015 7.053.072 5.775.132 4.905.333 4.14.63c-.789.306-1.459.717-2.126 1.384S.935 3.35.63 4.14C.333 4.905.131 5.775.072 7.053.012 8.333 0 8.74 0 12s.015 3.667.072 4.947c.06 1.277.261 2.148.558 2.913.306.788.717 1.459 1.384 2.126.667.666 1.336 1.079 2.126 1.384.766.296 1.636.499 2.913.558C8.333 23.988 8.74 24 12 24s3.667-.015 4.947-.072c1.277-.06 2.148-.262 2.913-.558.788-.306 1.459-.718 2.126-1.384.666-.667 1.079-1.335 1.384-2.126.296-.765.499-1.636.558-2.913.06-1.28.072-1.687.072-4.947s-.015-3.667-.072-4.947c-.06-1.277-.262-2.149-.558-2.913-.306-.789-.718-1.459-1.384-2.126C21.319 1.347 20.651.935 19.86.63c-.765-.297-1.636-.499-2.913-.558C15.667.012 15.26 0 12 0zm0 2.16c3.203 0 3.585.016 4.85.071 1.17.055 1.805.249 2.227.415.562.217.96.477 1.382.896.419.42.679.819.896 1.381.164.422.36 1.057.413 2.227.057 1.266.07 1.646.07 4.85s-.015 3.585-.074 4.85c-.061 1.17-.256 1.805-.421 2.227-.224.562-.479.96-.899 1.382-.419.419-.824.679-1.38.896-.42.164-1.065.36-2.235.413-1.274.057-1.649.07-4.859.07-3.211 0-3.586-.015-4.859-.074-1.171-.061-1.816-.256-2.236-.421-.569-.224-.96-.479-1.379-.899-.421-.419-.69-.824-.9-1.38-.165-.42-.359-1.065-.42-2.235-.045-1.26-.061-1.649-.061-4.844 0-3.196.016-3.586.061-4.861.061-1.17.255-1.814.42-2.234.21-.57.479-.96.9-1.381.419-.419.81-.689 1.379-.898.42-.166 1.051-.361 2.221-.421 1.275-.045 1.65-.06 4.859-.06l.045.03zm0 3.678c-3.405 0-6.162 2.76-6.162 6.162 0 3.405 2.76 6.162 6.162 6.162 3.405 0 6.162-2.76 6.162-6.162 0-3.405-2.76-6.162-6.162-6.162zM12 16c-2.21 0-4-1.79-4-4s1.79-4 4-4 4 1.79 4 4-1.79 4-4 4zm7.846-10.405c0 .795-.646 1.44-1.44 1.44-.795 0-1.44-.646-1.44-1.44 0-.794.646-1.439 1.44-1.439.793-.001 1.44.645 1.44 1.439z"/></symbol>

<symbol id="linkedin" fill-rule="evenodd" clip-rule="evenodd" stroke-linejoin="round" stroke-miterlimit="1.414"><path d="M20.447 20.452h-3.554v-5.569c0-1.328-.027-3.037-1.852-3.037-1.853 0-2.136 1.445-2.136 2.939v5.667H9.351V9h3.414v1.561h.046c.477-.9 1.637-1.85 3.37-1.85 3.601 0 4.267 2.37 4.267 5.455v6.286zM5.337 7.433c-1.144 0-2.063-.926-2.063-2.065 0-1.138.92-2.063 2.063-2.063 1.14 0 2.064.925 2.064 2.063 0 1.139-.925 2.065-2.064 2.065zm1.782 13.019H3.555V9h3.564v11.452zM22.225 0H1.771C.792 0 0 .774 0 1.729v20.542C0 23.227.792 24 1.771 24h20.451C23.2 24 24 23.227 24 22.271V1.729C24 .774 23.2 0 22.222 0h.003z"/></symbol>

<symbol id="pinterest" fill-rule="evenodd" clip-rule="evenodd" stroke-linejoin="round" stroke-miterlimit="1.414"><path d="M8 0C3.582 0 0 3.582 0 8c0 3.39 2.108 6.285 5.084 7.45-.07-.633-.133-1.604.028-2.295.146-.625.938-3.977.938-3.977s-.24-.48-.24-1.188c0-1.11.646-1.943 1.448-1.943.683 0 1.012.513 1.012 1.127 0 .687-.436 1.713-.662 2.664-.19.797.4 1.445 1.185 1.445 1.42 0 2.514-1.498 2.514-3.662 0-1.91-1.376-3.25-3.342-3.25-2.276 0-3.61 1.71-3.61 3.47 0 .69.263 1.43.593 1.83.066.08.075.15.057.23-.06.25-.196.8-.223.91-.035.15-.115.18-.268.11C3.516 10.46 2.89 9 2.89 7.82c0-2.52 1.834-4.84 5.287-4.84 2.774 0 4.932 1.98 4.932 4.62 0 2.76-1.74 4.98-4.16 4.98-.81 0-1.57-.42-1.84-.92l-.5 1.9c-.18.698-.67 1.57-1 2.1.75.23 1.54.357 2.37.357 4.41 0 8-3.58 8-8s-3.59-8-8-8z" fill-rule="nonzero"/></symbol>

<symbol id="rss" fill-rule="evenodd" clip-rule="evenodd" stroke-linejoin="round" stroke-miterlimit="1.414"><path d="M19.199 24C19.199 13.467 10.533 4.8 0 4.8V0c13.165 0 24 10.835 24 24h-4.801zM3.291 17.415c1.814 0 3.293 1.479 3.293 3.295 0 1.813-1.485 3.29-3.301 3.29C1.47 24 0 22.526 0 20.71s1.475-3.294 3.291-3.295zM15.909 24h-4.665c0-6.169-5.075-11.245-11.244-11.245V8.09c8.727 0 15.909 7.184 15.909 15.91z"/></symbol>

<symbol id="stackoverflow" class="svg-icon" fill-rule="evenodd" clip-rule="evenodd" stroke-linejoin="round" stroke-miterlimit="1.414"><path d="M12.658 14.577v-4.27h1.423V16H1.23v-5.693h1.42v4.27h10.006zm-8.583-1.423h7.16V11.73h-7.16v1.424zm.173-3.235l6.987 1.46.3-1.38L4.55 8.54l-.302 1.38zm.906-3.37l6.47 3.02.602-1.3-6.47-3.02-.602 1.29zm1.81-3.19l5.478 4.57.906-1.08L7.87 2.28l-.9 1.078zM10.502 0L9.338.863l4.27 5.735 1.164-.862L10.5 0z"/></symbol>

<symbol id="twitter" fill-rule="evenodd" clip-rule="evenodd" stroke-linejoin="round" stroke-miterlimit="1.414"><path d="M23.954 4.569c-.885.389-1.83.654-2.825.775 1.014-.611 1.794-1.574 2.163-2.723-.951.555-2.005.959-3.127 1.184-.896-.959-2.173-1.559-3.591-1.559-2.717 0-4.92 2.203-4.92 4.917 0 .39.045.765.127 1.124C7.691 8.094 4.066 6.13 1.64 3.161c-.427.722-.666 1.561-.666 2.475 0 1.71.87 3.213 2.188 4.096-.807-.026-1.566-.248-2.228-.616v.061c0 2.385 1.693 4.374 3.946 4.827-.413.111-.849.171-1.296.171-.314 0-.615-.03-.916-.086.631 1.953 2.445 3.377 4.604 3.417-1.68 1.319-3.809 2.105-6.102 2.105-.39 0-.779-.023-1.17-.067 2.189 1.394 4.768 2.209 7.557 2.209 9.054 0 13.999-7.496 13.999-13.986 0-.209 0-.42-.015-.63.961-.689 1.8-1.56 2.46-2.548l-.047-.02z"/></symbol>

<symbol id="youtube" fill-rule="evenodd" clip-rule="evenodd" stroke-linejoin="round" stroke-miterlimit="1.414"><path d="M0 7.345c0-1.294.16-2.59.16-2.59s.156-1.1.636-1.587c.608-.637 1.408-.617 1.764-.684C3.84 2.36 8 2.324 8 2.324s3.362.004 5.6.166c.314.038.996.04 1.604.678.48.486.636 1.588.636 1.588S16 6.05 16 7.346v1.258c0 1.296-.16 2.59-.16 2.59s-.156 1.102-.636 1.588c-.608.638-1.29.64-1.604.678-2.238.162-5.6.166-5.6.166s-4.16-.037-5.44-.16c-.356-.067-1.156-.047-1.764-.684-.48-.487-.636-1.587-.636-1.587S0 9.9 0 8.605v-1.26zm6.348 2.73V5.58l4.323 2.255-4.32 2.24z"/></symbol>

<symbol id="mail" fill-rule="evenodd" clip-rule="evenodd" stroke-linejoin="round" stroke-miterlimit="1.414"><path d="M11.585 5.267c1.834 0 3.558.811 4.824 2.08v.004c0-.609.41-1.068.979-1.068h.145c.891 0 1.073.842 1.073 1.109l.005 9.475c-.063.621.64.941 1.029.543 1.521-1.564 3.342-8.038-.946-11.79-3.996-3.497-9.357-2.921-12.209-.955-3.031 2.091-4.971 6.718-3.086 11.064 2.054 4.74 7.931 6.152 11.424 4.744 1.769-.715 2.586 1.676.749 2.457-2.776 1.184-10.502 1.064-14.11-5.188C-.977 13.521-.847 6.093 5.62 2.245 10.567-.698 17.09.117 21.022 4.224c4.111 4.294 3.872 12.334-.139 15.461-1.816 1.42-4.516.037-4.498-2.031l-.019-.678c-1.265 1.256-2.948 1.988-4.782 1.988-3.625 0-6.813-3.189-6.813-6.812 0-3.659 3.189-6.885 6.814-6.885zm4.561 6.623c-.137-2.653-2.106-4.249-4.484-4.249h-.09c-2.745 0-4.268 2.159-4.268 4.61 0 2.747 1.842 4.481 4.256 4.481 2.693 0 4.464-1.973 4.592-4.306l-.006-.536z"/></symbol>

<symbol id="mastodon" fill-rule="evenodd" clip-rule="evenodd" stroke-linejoin="round" stroke-miterlimit="1.414">
  <path transform="scale(0.07)" d="M211.80734 139.0875c-3.18125 16.36625-28.4925 34.2775-57.5625 37.74875-15.15875 1.80875-30.08375 3.47125-45.99875 2.74125-26.0275-1.1925-46.565-6.2125-46.565-6.2125 0 2.53375.15625 4.94625.46875 7.2025 3.38375 25.68625 25.47 27.225 46.39125 27.9425 21.11625.7225 39.91875-5.20625 39.91875-5.20625l.8675 19.09s-14.77 7.93125-41.08125 9.39c-14.50875.7975-32.52375-.365-53.50625-5.91875C9.23234 213.82 1.40609 165.31125.20859 116.09125c-.365-14.61375-.14-28.39375-.14-39.91875 0-50.33 32.97625-65.0825 32.97625-65.0825C49.67234 3.45375 78.20359.2425 107.86484 0h.72875c29.66125.2425 58.21125 3.45375 74.8375 11.09 0 0 32.975 14.7525 32.975 65.0825 0 0 .41375 37.13375-4.59875 62.915"/>
  <path transform="scale(0.07)" fill="#FFF" d="M177.50984 80.077v60.94125h-24.14375v-59.15c0-12.46875-5.24625-18.7975-15.74-18.7975-11.6025 0-17.4175 7.5075-17.4175 22.3525v32.37625H96.20734V85.42325c0-14.845-5.81625-22.3525-17.41875-22.3525-10.49375 0-15.74 6.32875-15.74 18.7975v59.15H38.90484V80.077c0-12.455 3.17125-22.3525 9.54125-29.675 6.56875-7.3225 15.17125-11.07625 25.85-11.07625 12.355 0 21.71125 4.74875 27.8975 14.2475l6.01375 10.08125 6.015-10.08125c6.185-9.49875 15.54125-14.2475 27.8975-14.2475 10.6775 0 19.28 3.75375 25.85 11.07625 6.36875 7.3225 9.54 17.22 9.54 29.675"/>
</symbol>

<symbol id="microdotblog" fill-rule="evenodd" clip-rule="evenodd" stroke-linejoin="round" stroke-miterlimit="1.414">
        <path d="M13.8958184,12.3539692 C13.7934913,12.5766333 13.7214973,12.7460692 13.6798363,12.8622768 C13.534018,13.2690171 13.4876062,13.5959963 13.4737723,13.8031622 C13.4047037,14.8374843 13.8695637,15.452098 13.9792411,15.6152902 C14.143626,15.8598834 14.2103299,15.996999 14.1793527,16.0266369 C14.1187128,16.1331597 13.9329861,16.1331597 13.6221726,16.0266369 C13.1559524,15.8668527 11.8671503,15.3666667 11.3815104,14.6616443 C11.1859547,14.3777486 11.0620507,14.2565499 10.9838025,14.2130531 C10.0617698,14.5547858 9.05472096,14.7428571 8,14.7428571 C3.581722,14.7428571 0,11.4425562 0,7.37142857 C0,3.30030099 3.581722,0 8,0 C12.418278,0 16,3.30030099 16,7.37142857 C16,9.29250872 15.2024583,11.041949 13.8958184,12.3539692 Z M7.94285714,9.78095238 C9.51605596,10.7990263 10.3706771,11.2483272 10.5067204,11.1288551 C10.6427638,11.0093829 10.4795457,10.0577483 10.0170661,8.27395135 C11.4827084,7.15954158 12.1741114,6.48559023 12.0912751,6.2520973 C12.0084388,6.01860437 11.0529434,5.87976276 9.22478879,5.83557246 C8.61970046,4.10392098 8.19238991,3.23809524 7.94285714,3.23809524 C7.69332437,3.23809524 7.26601382,4.10392098 6.6609255,5.83557246 C4.82960347,5.88951121 3.87410803,6.02835282 3.7944392,6.2520973 C3.71477036,6.47584178 4.40617335,7.14979313 5.86864817,8.27395135 C5.36780472,9.99753359 5.20458662,10.9491682 5.37899385,11.1288551 C5.55340109,11.308542 6.40802218,10.8592411 7.94285714,9.78095238 Z"></path>
</symbol>

<symbol id="telegram" fill-rule="evenodd" clip-rule="evenodd" stroke-linejoin="round" stroke-miterlimit="1.414">
  <path d="M23.91 3.79L20.3 20.84c-.25 1.21-.98 1.5-2 .94l-5.5-4.07-2.66 2.57c-.3.3-.55.56-1.1.56-.72 0-.6-.27-.84-.95L6.3 13.7l-5.45-1.7c-1.18-.35-1.19-1.16.26-1.75l21.26-8.2c.97-.43 1.9.24 1.53 1.73z"/>
</symbol>

<symbol id="keybase" fill-rule="evenodd" clip-rule="evenodd" stroke-linejoin="round" stroke-miterlimit="1.414" viewBox="0 0 50 50">
  <path d="M31.5 40A1.5 1.5 0 1 0 31.5 43 1.5 1.5 0 1 0 31.5 40zM20.5 40A1.5 1.5 0 1 0 20.5 43 1.5 1.5 0 1 0 20.5 40z"/><path fill="none" stroke="#000" stroke-linecap="round" stroke-miterlimit="10" stroke-width="2" d="M7.167 39c.289 2.14.955 4.157 1.91 6M19.25 13h-4.5C14.336 13 14 12.664 14 12.25v-4.5C14 7.336 14.336 7 14.75 7h4.5C19.664 7 20 7.336 20 7.75v3"/><path d="M25.5,23c-4.136,0-7.5-3.364-7.5-7.5c0-6.863,5.59-12.023,5.827-12.24c0.345-0.313,0.858-0.346,1.242-0.082c0.383,0.265,0.531,0.76,0.359,1.192C25,5.45,24.614,7.253,25.007,7.831C25.041,7.882,25.122,8,25.5,8c4.136,0,7.5,3.364,7.5,7.5S29.636,23,25.5,23z"/><path d="M44.938,34.942c-0.482-6.158-3.811-11.592-8.878-14.837c-0.041-0.026-0.081-0.054-0.122-0.08c-0.336-0.211-0.681-0.41-1.031-0.602c-0.123-0.068-0.244-0.137-0.369-0.202c-0.082-0.043-0.168-0.08-0.251-0.121c-0.63,1.531-1.649,2.862-2.932,3.871l3.352,3.352c0.391,0.391,0.391,1.023,0,1.414c-0.195,0.195-0.451,0.293-0.707,0.293s-0.512-0.098-0.707-0.293l-0.837-0.837l-1.808,1.808C30.453,28.902,30.197,29,29.941,29s-0.512-0.098-0.707-0.293c-0.391-0.391-0.391-1.023,0-1.414l1.808-1.808L30,24.443l-1.293,1.293c-0.195,0.195-0.451,0.293-0.707,0.293s-0.512-0.098-0.707-0.293c-0.236-0.236-0.311-0.557-0.263-0.862C26.532,24.955,26.021,25,25.5,25c-4.033,0-7.478-2.53-8.854-6.083C9.218,22.402,5,30.302,5,41v3l1.8-2.4c1.86-2.48,4.12-4.968,6.266-6.95c-0.528,1.41-0.882,2.821-1.058,4.226l-0.314,2.514l1.947-1.622C13.697,39.721,19.437,35,26,35c3.219,0,4.979,0.298,6.531,0.562C33.861,35.787,35.118,36,37,36c3.1,0,4.797-1.585,5.537-3.485c0.197,0.844,0.336,1.707,0.407,2.586C42.98,35.564,43,36.03,43,36.5c0,2.818-0.662,5.522-1.968,8.04c-0.254,0.49-0.063,1.094,0.427,1.348C41.606,45.964,41.764,46,41.919,46c0.361,0,0.711-0.196,0.889-0.54C44.263,42.656,45,39.642,45,36.5C45,35.977,44.979,35.457,44.938,34.942z"/>
</symbol>

<symbol id="devto" fill-rule="evenodd" clip-rule="evenodd" stroke-linejoin="round" stroke-miterlimit="1.414">
  <path transform="scale(0.039)" d="M10.5 2.5C5.6 4.2 2.4 7.8 1 12.9.3 15.6.1 77.2.2 207.1.5 396.6.5 397.5 2.5 401c1.2 1.9 3.6 4.3 5.5 5.5 3.5 2 4.2 2 196 2s192.5 0 196-2c1.9-1.2 4.3-3.6 5.5-5.5 2-3.5 2-4.2 2-196s0-192.5-2-196c-1.2-1.9-3.6-4.3-5.5-5.5-3.5-2-4.4-2-194.5-2.2-162.9-.2-191.6 0-195 1.2zm96.8 124c9 1.9 15.5 5.6 22.2 12.6 6.1 6.4 9.9 13.7 11.5 21.9 1.3 6.9 1.3 81.1 0 88.1-3.4 18.2-18.9 32.4-38.1 34.9-4 .5-17.4 1-29.6 1H51V125h24.8c17.6 0 26.6.4 31.5 1.5zm130.7 13V154h-51v36h31v29h-31l.2 18.2.3 18.3 25.3.3 25.2.2v29h-29.5c-32.8 0-37.9-.6-43.1-5.2-7.3-6.4-6.9-2.3-7.2-72.6-.2-43.8.1-64.5.8-67.3 1.4-5.2 7.3-11.6 12.5-13.4 3.1-1.1 10.9-1.4 35.3-1.5H238v14.5zm48.9-12.3c.4 1.3 6.8 25.6 14.2 54 7.4 28.5 13.6 51.2 13.8 50.5.3-.7 6.6-24.8 14.1-53.7l13.7-52.5 15.6-.3c11.8-.2 15.7.1 15.7 1s-34.6 132.4-36.6 139c-1.4 4.6-8.9 14-13.1 16.5-5.3 3-13.1 3.5-17.9 1-4.3-2.2-10-8.8-12.9-15-1.8-3.8-31.2-112-38-140l-.7-2.7h15.6c15.3 0 15.7 0 16.5 2.2z"/>
  <path transform="scale(0.039)" d="M80 205v51.2l10.3-.4c8.9-.3 10.8-.7 14.8-3 7.8-4.6 7.9-4.9 7.9-48.4 0-42.4 0-42.4-7.3-47.2-3.6-2.4-5.1-2.7-14.9-3.1l-10.8-.3V205z"/>
</symbol>

<symbol id="gitlab" fill-rule="evenodd" clip-rule="evenodd" stroke-linejoin="round" stroke-miterlimit="1.414" viewBox="0 0 1792 1792">
  <path d="M104 706l792 1015-868-630q-18-13-25-34.5t0-42.5l101-308zm462 0h660l-330 1015zm-198-612l198 612h-462l198-612q8-23 33-23t33 23zm1320 612l101 308q7 21 0 42.5t-25 34.5l-868 630 792-1015zm0 0h-462l198-612q8-23 33-23t33 23z"/>
</symbol>
</svg>
